<svg width="32" height="32" viewBox="0 0 32 32" fill="none" xmlns="http://www.w3.org/2000/svg">
<path d="M16.8398 2.24023C17.0898 2.24023 17.3398 2.24023 17.5848 2.25023C18.9598 2.28523 20.2148 2.63523 21.3048 3.30523C23.9848 4.94023 25.1698 7.20023 24.9298 10.2102C24.8098 11.7102 24.6798 13.2152 24.5548 14.7152L24.4048 16.5152C24.3848 16.7652 24.3448 16.8602 23.9898 16.8652C23.9098 16.8652 23.8298 16.8652 23.7498 16.8652H23.5998H23.4448H23.2698C21.7348 16.8852 20.4948 17.9802 20.3848 19.4102C20.3298 20.1452 20.3298 20.8902 20.3348 21.6102C20.3348 21.9052 20.3398 22.1952 20.3348 22.4902C20.3298 22.8752 20.3198 22.9102 19.8948 22.9152C19.7598 22.9152 19.6248 22.9152 19.4848 22.9152H19.2598V22.8802C19.2598 22.4652 19.2598 22.0702 19.2598 21.6702C19.2548 20.8302 18.6948 20.2252 17.9198 20.2252C17.9148 20.2252 17.8898 20.2252 17.8848 20.2252C17.1198 20.2452 16.5798 20.8352 16.5748 21.6702C16.5698 22.0652 16.5748 22.4602 16.5748 22.8652V22.8952H15.3498V22.8452C15.3498 22.4452 15.3498 22.0602 15.3498 21.6702C15.3448 20.8452 14.7898 20.2402 14.0098 20.2302C13.2248 20.2302 12.6698 20.8252 12.6648 21.6702C12.6648 22.0502 12.6648 22.4352 12.6648 22.8302V22.8902C12.5148 22.8952 12.3698 22.9002 12.2248 22.9002C12.0098 22.9002 11.8398 22.8902 11.6898 22.8652C11.6198 22.8552 11.6048 22.6802 11.6048 22.6102C11.6098 21.8052 11.6098 21.0002 11.6048 20.1902V19.8802C11.5998 18.1102 10.3348 16.8702 8.53482 16.8702H8.46482H8.32982C7.52482 16.8702 7.52482 16.8702 7.45982 15.9502C7.39982 15.0652 7.32482 14.1802 7.25482 13.2952C7.15982 12.1102 7.05982 10.8902 6.98982 9.68524C6.85982 7.44524 7.73982 5.52523 9.61482 3.98023C10.9748 2.85523 12.6248 2.28023 14.5248 2.26023C14.8498 2.25523 15.1748 2.25023 15.4948 2.24523C15.9348 2.25023 16.3848 2.24023 16.8398 2.24023ZM12.0548 14.7452C13.8048 14.7452 15.2048 13.4252 15.2998 11.6752C15.3448 10.8502 15.0598 10.0502 14.4948 9.43023C13.9048 8.78023 13.0498 8.38523 12.1498 8.35023C12.0998 8.35023 12.0498 8.34523 11.9998 8.34523C10.1548 8.34523 8.75982 9.66023 8.67482 11.4752C8.59482 13.1902 10.0398 14.6552 11.8898 14.7452C11.9448 14.7452 11.9998 14.7452 12.0548 14.7452ZM19.9298 14.7452C20.8448 14.7452 21.6948 14.4002 22.3198 13.7702C22.9198 13.1702 23.2448 12.3752 23.2448 11.5302C23.2398 9.74523 21.7798 8.34523 19.9048 8.34523C19.0148 8.35023 18.1448 8.71023 17.5198 9.34023C16.9198 9.95023 16.5898 10.7402 16.5948 11.5702C16.6048 13.2852 18.1298 14.7352 19.9198 14.7452C19.9148 14.7452 19.9298 14.7452 19.9298 14.7452ZM15.9248 18.3452C16.3498 18.3452 16.9548 18.2952 17.3098 17.8502C17.6598 17.4152 17.5798 16.8302 17.4898 16.4302C17.4598 16.3052 17.4348 16.1852 17.4098 16.0602C17.3698 15.8752 17.3348 15.6902 17.2898 15.5102C17.1348 14.8752 16.6248 14.4502 15.9898 14.4402C15.9848 14.4402 15.9598 14.4402 15.9598 14.4402C15.3198 14.4402 14.7948 14.8552 14.6248 15.5002C14.5348 15.8502 14.4548 16.2052 14.3898 16.5102C14.2648 17.0902 14.3348 17.5252 14.5998 17.8502C14.8698 18.1852 15.2998 18.3452 15.9248 18.3452ZM16.8398 1.74023C16.0598 1.74023 15.2798 1.76023 14.4998 1.77023C12.5298 1.78523 10.7648 2.37023 9.27482 3.60523C7.32982 5.21023 6.32482 7.24523 6.46982 9.72523C6.59482 11.8152 6.79982 13.9052 6.94482 15.9952C7.01982 17.0752 7.09482 17.3802 8.31482 17.3802C8.35982 17.3802 8.40982 17.3802 8.45982 17.3802C8.47982 17.3802 8.49982 17.3802 8.52482 17.3802C10.0748 17.3802 11.0898 18.3952 11.0948 19.8902C11.0998 20.7952 11.0998 21.7052 11.0948 22.6102C11.0898 22.9802 11.2448 23.3102 11.5998 23.3602C11.7998 23.3902 12.0048 23.4002 12.2148 23.4002C12.5248 23.4002 12.8398 23.3802 13.1598 23.3802C13.1598 22.7802 13.1548 22.2252 13.1598 21.6702C13.1648 21.0952 13.4998 20.7252 14.0048 20.7252C14.0098 20.7252 14.0148 20.7252 14.0198 20.7252C14.5048 20.7302 14.8398 21.1102 14.8448 21.6702C14.8498 22.2352 14.8448 22.8002 14.8448 23.3952C15.5998 23.3952 16.3098 23.3952 17.0698 23.3952C17.0698 22.8052 17.0648 22.2402 17.0698 21.6752C17.0748 21.1152 17.4048 20.7402 17.8898 20.7302C17.8998 20.7302 17.9048 20.7302 17.9098 20.7302C18.3998 20.7302 18.7448 21.1152 18.7498 21.6802C18.7548 22.2452 18.7498 22.8102 18.7498 23.4202C19.0048 23.4202 19.2448 23.4202 19.4748 23.4202C19.6148 23.4202 19.7548 23.4202 19.8898 23.4202C20.5748 23.4102 20.8198 23.1652 20.8248 22.5002C20.8348 21.4852 20.7948 20.4652 20.8748 19.4602C20.9698 18.2552 22.0148 17.3952 23.2698 17.3752C23.3248 17.3752 23.3798 17.3752 23.4348 17.3752C23.5348 17.3752 23.6348 17.3752 23.7398 17.3752C23.8248 17.3752 23.9048 17.3752 23.9898 17.3752C24.5598 17.3602 24.8448 17.1052 24.8898 16.5652C25.0648 14.4602 25.2448 12.3602 25.4148 10.2552C25.6748 7.06024 24.3748 4.60523 21.5548 2.88523C20.3498 2.15023 19.0098 1.79023 17.5848 1.76023C17.3448 1.74523 17.0948 1.74023 16.8398 1.74023ZM12.0548 14.2452C12.0098 14.2452 11.9598 14.2452 11.9148 14.2402C10.3298 14.1652 9.10982 12.9402 9.17482 11.4952C9.24482 9.95523 10.4398 8.84023 11.9998 8.84023C12.0448 8.84023 12.0848 8.84023 12.1298 8.84523C13.6798 8.90523 14.8848 10.1702 14.7998 11.6452C14.7198 13.1252 13.5198 14.2452 12.0548 14.2452ZM19.9298 14.2452C19.9248 14.2452 19.9248 14.2452 19.9198 14.2452C18.3898 14.2402 17.1048 13.0202 17.0948 11.5702C17.0848 10.0852 18.3598 8.85023 19.9098 8.84523C19.9148 8.84523 19.9148 8.84523 19.9198 8.84523C21.5048 8.84523 22.7448 10.0252 22.7448 11.5352C22.7448 13.0452 21.4998 14.2452 19.9298 14.2452ZM15.9298 17.8452C15.9298 17.8452 15.9248 17.8452 15.9298 17.8452C15.0248 17.8452 14.6998 17.4652 14.8798 16.6152C14.9498 16.2852 15.0248 15.9552 15.1098 15.6252C15.2248 15.1902 15.5448 14.9402 15.9598 14.9402C15.9648 14.9402 15.9748 14.9402 15.9798 14.9402C16.3798 14.9502 16.6998 15.2102 16.8048 15.6302C16.8798 15.9302 16.9348 16.2402 17.0048 16.5402C17.2148 17.4802 16.9148 17.8452 15.9298 17.8452Z" fill="black"/>
<path d="M8.29539 20.0001H8.75539C8.75539 20.0251 8.75539 20.0501 8.75539 20.0801C8.75039 20.5301 8.75039 20.9551 8.76039 21.3901L8.76539 21.6051C8.77539 22.0251 8.78539 22.4651 8.89039 22.8951C9.26539 24.4451 10.5954 25.5201 12.2054 25.5701C12.3904 25.5751 12.5804 25.5801 12.7654 25.5801C12.9104 25.5801 13.0604 25.5801 13.2104 25.5801V26.4601C13.2104 26.7351 13.4354 26.9601 13.7104 26.9601H15.1904C15.4654 26.9601 15.6904 26.7351 15.6904 26.4601V25.6101H16.2054V26.4651C16.2054 26.7401 16.4304 26.9651 16.7054 26.9651H18.1854C18.4604 26.9651 18.6854 26.7401 18.6854 26.4651V25.5801H18.9704H19.4254C21.6954 25.5751 23.1604 24.0551 23.1604 21.6951V20.1501V20.0251H24.3954V20.6501C24.3954 21.6551 24.3954 22.6651 24.3954 23.6701C24.3904 24.6051 24.0454 25.3251 23.3404 25.8601C22.5354 26.4701 21.7304 27.0751 20.9254 27.6801C20.2554 28.1851 19.5804 28.6851 18.9004 29.2051C18.2354 28.8401 17.5154 28.4801 16.6704 28.3601C16.4304 28.3251 16.1854 28.3101 15.9504 28.3101C15.0304 28.3101 14.1454 28.5651 13.3254 29.0601C13.2104 29.1301 13.1204 29.1651 13.0604 29.1651C12.9904 29.1651 12.8954 29.1151 12.7654 29.0151C11.8354 28.2801 10.8704 27.5651 9.94039 26.8701C9.50539 26.5451 9.07039 26.2201 8.63539 25.8951C7.89539 25.3351 7.53039 24.6051 7.53039 23.6601C7.53039 22.7051 7.53039 21.7501 7.53039 20.7801V19.9951L8.29539 20.0001ZM8.29539 19.5001C7.98039 19.5001 7.67539 19.5001 7.37039 19.5001C7.27039 19.5001 7.16539 19.5101 7.02539 19.5151C7.02539 20.9301 7.02539 22.2951 7.02539 23.6651C7.02539 24.7751 7.47039 25.6501 8.33039 26.3001C9.70539 27.3351 11.1004 28.3451 12.4554 29.4101C12.6754 29.5851 12.8654 29.6701 13.0604 29.6701C13.2254 29.6701 13.3904 29.6101 13.5854 29.4901C14.3254 29.0401 15.1154 28.8101 15.9504 28.8101C16.1654 28.8101 16.3854 28.8251 16.6054 28.8551C17.3704 28.9601 18.0504 29.3001 18.7154 29.6701C18.7904 29.7101 18.8554 29.7351 18.9204 29.7351C18.9954 29.7351 19.0704 29.7051 19.1504 29.6401C20.6454 28.5101 22.1504 27.3901 23.6454 26.2551C24.4804 25.6201 24.8954 24.7451 24.9004 23.6701C24.9054 22.4001 24.9004 21.1251 24.9004 19.8551C24.9004 19.7501 24.8904 19.6451 24.8854 19.5201C24.1404 19.5201 23.4154 19.5201 22.6704 19.5201C22.6704 20.2601 22.6704 20.9701 22.6704 21.6851C22.6704 23.7751 21.4354 25.0651 19.4354 25.0701C19.2854 25.0701 19.1354 25.0701 18.9804 25.0701C18.7254 25.0701 18.4654 25.0701 18.1954 25.0701C18.1954 25.5601 18.1954 26.0051 18.1954 26.4551C17.6954 26.4551 17.2254 26.4551 16.7154 26.4551C16.7154 25.9901 16.7154 25.5501 16.7154 25.1001C16.2004 25.1001 15.7204 25.1001 15.2004 25.1001C15.2004 25.5701 15.2004 26.0151 15.2004 26.4501C14.6904 26.4501 14.2204 26.4501 13.7204 26.4501C13.7204 25.9801 13.7204 25.5401 13.7204 25.0651C13.3954 25.0651 13.0804 25.0701 12.7754 25.0701C12.5904 25.0701 12.4104 25.0701 12.2304 25.0601C10.8504 25.0151 9.71039 24.1201 9.38539 22.7701C9.27539 22.3201 9.28539 21.8351 9.27039 21.3651C9.25039 20.7501 9.26539 20.1401 9.26539 19.4951C8.93039 19.5001 8.61039 19.5001 8.29539 19.5001Z" fill="black"/>
</svg>
