<svg width="32" height="32" viewBox="0 0 32 32" fill="none" xmlns="http://www.w3.org/2000/svg">
<path d="M13.1378 11H10.6033L8.07031 15.8965L9.34731 18.3285L13.1378 11Z" fill="black"/>
<path d="M17.638 11H15.138L10.355 20.2475L11.614 22.646L17.638 11Z" fill="black"/>
<path d="M7.0635 13.9775L8.6035 11H5.5L7.0635 13.9775Z" fill="black"/>
<path d="M22.1381 11H19.6381L12.6216 24.565L13.8811 26.9635L22.1381 11Z" fill="black"/>
<path d="M26.5002 11H24.1382L14.8887 28.8825L16.0002 31L26.5002 11Z" fill="black"/>
<path d="M15.5 7.5V8.5C15.5 8.63261 15.5527 8.75979 15.6464 8.85355C15.7402 8.94732 15.8674 9 16 9C16.1326 9 16.2598 8.94732 16.3536 8.85355C16.4473 8.75979 16.5 8.63261 16.5 8.5V7.5C16.5 7.36739 16.4473 7.24021 16.3536 7.14645C16.2598 7.05268 16.1326 7 16 7C15.8674 7 15.7402 7.05268 15.6464 7.14645C15.5527 7.24021 15.5 7.36739 15.5 7.5Z" fill="black"/>
<path d="M16.618 2.3165L16 1L15.382 2.3165L14 2.528L15 3.553L14.764 5L16 4.3165L17.236 5L17 3.553L18 2.528L16.618 2.3165Z" fill="black"/>
<path d="M29.5 2.5L29.0365 3.4875L28 3.646L28.75 4.4145L28.573 5.5L29.5 4.9875L30.427 5.5L30.25 4.4145L31 3.646L29.9635 3.4875L29.5 2.5Z" fill="black"/>
<path d="M25.117 6.2855C25.3456 6.31491 25.5779 6.28998 25.7951 6.21274C26.0123 6.13551 26.2082 6.00815 26.367 5.841C26.4539 5.74348 26.4992 5.61581 26.4932 5.4853C26.4872 5.3548 26.4303 5.23183 26.3348 5.14271C26.2393 5.05359 26.1127 5.00539 25.9821 5.00844C25.8515 5.01148 25.7272 5.06553 25.636 5.159C25.512 5.291 25.4265 5.2935 25.15 5.286C24.9214 5.2563 24.689 5.28103 24.4717 5.35819C24.2545 5.43535 24.0586 5.56275 23.9 5.73C23.7455 5.9032 23.63 6.10743 23.561 6.32897C23.492 6.55052 23.4712 6.78426 23.5 7.0145C23.508 7.3065 23.5055 7.442 23.3675 7.5895C23.245 7.721 23.1585 7.725 22.883 7.7155C22.6544 7.68618 22.4222 7.71105 22.205 7.78809C21.9879 7.86514 21.7919 7.9922 21.633 8.15901C21.5864 8.20667 21.5499 8.26315 21.5255 8.32514C21.5011 8.38712 21.4893 8.45336 21.4909 8.51996C21.4924 8.58656 21.5073 8.65217 21.5345 8.71295C21.5618 8.77373 21.6009 8.82845 21.6496 8.8739C21.6983 8.91934 21.7556 8.95459 21.8182 8.97758C21.8807 9.00057 21.9472 9.01084 22.0137 9.00777C22.0803 9.00471 22.1455 8.98838 22.2057 8.95974C22.2658 8.9311 22.3196 8.89073 22.364 8.841C22.487 8.7095 22.573 8.70701 22.8485 8.71501C23.077 8.74518 23.3095 8.72072 23.5268 8.64362C23.7441 8.56653 23.94 8.439 24.0985 8.2715C24.2528 8.09838 24.3684 7.89424 24.4374 7.67278C24.5064 7.45133 24.5272 7.21767 24.4985 6.9875C24.4905 6.6955 24.4925 6.56 24.6305 6.4125C24.7545 6.2805 24.84 6.2775 25.117 6.2855Z" fill="black"/>
<path d="M1.573 5.5L2.5 4.9875L3.427 5.5L3.25 4.4145L4 3.646L2.9635 3.4875L2.5 2.5L2.0365 3.4875L1 3.646L1.75 4.4145L1.573 5.5Z" fill="black"/>
<path d="M6.85011 5.28604C6.57361 5.29454 6.48761 5.29154 6.36411 5.15904C6.27284 5.06556 6.14861 5.01152 6.01801 5.00847C5.8874 5.00543 5.76079 5.05362 5.66526 5.14274C5.56974 5.23186 5.51289 5.35483 5.50688 5.48534C5.50087 5.61584 5.54618 5.74352 5.63311 5.84104C5.7918 6.00825 5.98771 6.13566 6.20491 6.2129C6.42211 6.29013 6.65447 6.31502 6.88311 6.28554C7.16161 6.27704 7.24561 6.28054 7.36911 6.41254C7.50711 6.56004 7.50911 6.69554 7.50111 6.98754C7.47237 7.21771 7.4932 7.45136 7.56219 7.67282C7.63118 7.89428 7.74673 8.09842 7.90111 8.27154C8.05955 8.43903 8.25547 8.56656 8.47276 8.64366C8.69005 8.72075 8.92253 8.74522 9.15111 8.71504C9.42661 8.70704 9.51261 8.70954 9.63561 8.84104C9.72687 8.93452 9.8511 8.98856 9.98171 8.99161C10.1123 8.99465 10.2389 8.94646 10.3345 8.85734C10.43 8.76822 10.4868 8.64525 10.4928 8.51474C10.4988 8.38424 10.4535 8.25656 10.3666 8.15904C10.2077 7.99217 10.0117 7.86506 9.79457 7.78801C9.57741 7.71096 9.34515 7.68614 9.11661 7.71554C8.84161 7.72504 8.75461 7.72104 8.63211 7.58954C8.49411 7.44204 8.49161 7.30654 8.49961 7.01454C8.52839 6.78429 8.50758 6.55055 8.43859 6.32901C8.3696 6.10747 8.25402 5.90324 8.09961 5.73004C7.94102 5.56286 7.74518 5.4355 7.52805 5.35835C7.31092 5.28119 7.07863 5.25642 6.85011 5.28604ZM19.3536 7.85354L20.3536 6.85354C20.4447 6.75924 20.4951 6.63294 20.4939 6.50184C20.4928 6.37074 20.4402 6.24534 20.3475 6.15263C20.2548 6.05993 20.1294 6.00734 19.9983 6.0062C19.8672 6.00506 19.7409 6.05546 19.6466 6.14654L18.6466 7.14654C18.5989 7.19266 18.5608 7.24784 18.5346 7.30884C18.5084 7.36984 18.4946 7.43545 18.494 7.50184C18.4934 7.56823 18.5061 7.63407 18.5312 7.69552C18.5563 7.75697 18.5935 7.81279 18.6404 7.85974C18.6874 7.90668 18.7432 7.94381 18.8046 7.96895C18.8661 7.99409 18.9319 8.00674 18.9983 8.00617C19.0647 8.00559 19.1303 7.9918 19.1913 7.96559C19.2523 7.93939 19.3075 7.9013 19.3536 7.85354ZM22.6466 2.14654L21.6466 3.14654C21.5989 3.19266 21.5608 3.24784 21.5346 3.30884C21.5084 3.36984 21.4946 3.43545 21.494 3.50184C21.4934 3.56823 21.5061 3.63407 21.5312 3.69552C21.5563 3.75697 21.5935 3.81279 21.6404 3.85974C21.6874 3.90668 21.7432 3.94381 21.8046 3.96895C21.8661 3.99409 21.9319 4.00674 21.9983 4.00617C22.0647 4.00559 22.1303 3.9918 22.1913 3.96559C22.2523 3.93939 22.3075 3.9013 22.3536 3.85354L23.3536 2.85354C23.4014 2.80742 23.4395 2.75224 23.4657 2.69124C23.4919 2.63024 23.5057 2.56463 23.5062 2.49824C23.5068 2.43185 23.4942 2.36601 23.469 2.30456C23.4439 2.24312 23.4067 2.18729 23.3598 2.14034C23.3129 2.0934 23.257 2.05627 23.1956 2.03113C23.1341 2.00599 23.0683 1.99334 23.0019 1.99392C22.9355 1.99449 22.8699 2.00829 22.8089 2.03449C22.7479 2.06069 22.6927 2.09879 22.6466 2.14654ZM13.0001 8.00004C13.099 8.00002 13.1956 7.97068 13.2778 7.91574C13.36 7.8608 13.4241 7.78272 13.4619 7.69137C13.4998 7.60002 13.5097 7.4995 13.4904 7.40252C13.4711 7.30555 13.4235 7.21647 13.3536 7.14654L12.3536 6.14654C12.2593 6.05546 12.133 6.00506 12.0019 6.0062C11.8708 6.00734 11.7454 6.05993 11.6527 6.15263C11.56 6.24534 11.5074 6.37074 11.5063 6.50184C11.5051 6.63294 11.5555 6.75924 11.6466 6.85354L12.6466 7.85354C12.7404 7.94732 12.8675 8.00001 13.0001 8.00004ZM9.64661 3.85354C9.74091 3.94462 9.86721 3.99502 9.99831 3.99388C10.1294 3.99274 10.2548 3.94015 10.3475 3.84745C10.4402 3.75475 10.4928 3.62934 10.4939 3.49824C10.4951 3.36714 10.4447 3.24084 10.3536 3.14654L9.35361 2.14654C9.25931 2.05546 9.13301 2.00506 9.00191 2.0062C8.87081 2.00734 8.7454 2.05993 8.6527 2.15263C8.55999 2.24534 8.50741 2.37074 8.50627 2.50184C8.50513 2.63294 8.55553 2.75924 8.64661 2.85354L9.64661 3.85354Z" fill="black"/>
</svg>
